<svg width="100" height="25" viewBox="0 0 100 25" fill="none" xmlns="http://www.w3.org/2000/svg">
    <path d="M8.80212 24.7871C7.13531 24.7871 5.65117 24.5016 4.34969 23.9308C3.04821 23.36 2.02072 22.5837 1.26723 21.6018C0.513743 20.5972 0.091332 19.4784 0 18.2454H5.78817C5.85667 18.9076 6.16491 19.4441 6.7129 19.8551C7.2609 20.2661 7.93447 20.4716 8.73362 20.4716C9.46428 20.4716 10.0237 20.3346 10.4119 20.0606C10.8228 19.7638 11.0283 19.387 11.0283 18.9304C11.0283 18.3824 10.7429 17.9828 10.1721 17.7317C9.60128 17.4577 8.67654 17.1608 7.39789 16.8412C6.02791 16.5215 4.88626 16.1904 3.97294 15.8479C3.05962 15.4826 2.27188 14.9232 1.60973 14.1697C0.94757 13.3934 0.616491 12.3545 0.616491 11.053C0.616491 9.95702 0.91332 8.96378 1.50698 8.07329C2.12347 7.15997 3.01396 6.44073 4.17844 5.91557C5.36576 5.39041 6.76999 5.12783 8.39113 5.12783C10.7886 5.12783 12.6723 5.72149 14.0423 6.90881C15.4351 8.09612 16.2343 9.6716 16.4398 11.6352H11.0283C10.937 10.9731 10.6402 10.4479 10.1379 10.0598C9.65836 9.6716 9.01904 9.47752 8.21988 9.47752C7.53489 9.47752 7.00973 9.61452 6.6444 9.88852C6.27908 10.1397 6.09641 10.4936 6.09641 10.9502C6.09641 11.4982 6.38182 11.9092 6.95265 12.1832C7.54631 12.4572 8.45963 12.7312 9.69261 13.0052C11.1083 13.3705 12.2613 13.7359 13.1518 14.1012C14.0423 14.4437 14.8186 15.0145 15.4808 15.8137C16.1658 16.59 16.5197 17.6403 16.5425 18.9646C16.5425 20.0835 16.2229 21.0881 15.5835 21.9786C14.967 22.8462 14.0651 23.5312 12.8778 24.0336C11.7133 24.5359 10.3548 24.7871 8.80212 24.7871Z" fill="black"/>
    <path d="M30.7772 19.5469V24.5131H27.7975C25.674 24.5131 24.0186 23.9993 22.8313 22.9718C21.644 21.9215 21.0503 20.2205 21.0503 17.8687V10.2653H18.7214V5.40183V5.40183C20.0076 5.40183 21.0503 4.35912 21.0503 3.07286V0.743896H26.907V5.40183H30.7429V10.2653H26.907V17.9371C26.907 18.508 27.044 18.919 27.318 19.1701C27.592 19.4213 28.0487 19.5469 28.688 19.5469H30.7772Z" fill="black"/>
    <path d="M32.875 14.9232C32.875 12.9596 33.2403 11.2357 33.971 9.75152C34.7245 8.26737 35.7405 7.12572 37.0192 6.32657C38.2978 5.52741 39.7249 5.12783 41.3004 5.12783C42.6475 5.12783 43.8234 5.40183 44.8281 5.94982C45.8555 6.49781 46.6433 7.21705 47.1913 8.10754V5.40183H53.0479V24.5131H47.1913V21.8073C46.6204 22.6978 45.8213 23.4171 44.7938 23.9651C43.7892 24.5131 42.6133 24.7871 41.2661 24.7871C39.7135 24.7871 38.2978 24.3875 37.0192 23.5883C35.7405 22.7663 34.7245 21.6133 33.971 20.1291C33.2403 18.6221 32.875 16.8868 32.875 14.9232ZM47.1913 14.9574C47.1913 13.4961 46.7803 12.3431 45.9583 11.4982C45.1591 10.6534 44.1773 10.231 43.0128 10.231C41.8483 10.231 40.8551 10.6534 40.0331 11.4982C39.234 12.3202 38.8344 13.4619 38.8344 14.9232C38.8344 16.3845 39.234 17.549 40.0331 18.4166C40.8551 19.2615 41.8483 19.6839 43.0128 19.6839C44.1773 19.6839 45.1591 19.2615 45.9583 18.4166C46.7803 17.5718 47.1913 16.4188 47.1913 14.9574Z" fill="black"/>
    <path d="M67.9366 19.5469V24.5131H64.9569C62.8334 24.5131 61.178 23.9993 59.9907 22.9718C58.8034 21.9215 58.2097 20.2205 58.2097 17.8687V10.2653H55.8807V5.40183V5.40183C57.167 5.40183 58.2097 4.35911 58.2097 3.07286V0.743896H64.0664V5.40183H67.9023V10.2653H64.0664V17.9371C64.0664 18.508 64.2034 18.919 64.4774 19.1701C64.7514 19.4213 65.208 19.5469 65.8474 19.5469H67.9366Z" fill="black"/>
    <path d="M77.0555 5.40183V24.5131H71.1988V5.40183H77.0555Z" fill="#C50000"/>
    <path d="M89.9991 24.7871C88.1268 24.7871 86.4372 24.3875 84.9302 23.5883C83.4461 22.7892 82.2702 21.6475 81.4025 20.1634C80.5577 18.6792 80.1353 16.9439 80.1353 14.9574C80.1353 12.9938 80.5691 11.2699 81.4368 9.78577C82.3044 8.27879 83.4917 7.12572 84.9987 6.32657C86.5057 5.52741 88.1953 5.12783 90.0676 5.12783C91.94 5.12783 93.6296 5.52741 95.1366 6.32657C96.6435 7.12572 97.8309 8.27879 98.6985 9.78577C99.5662 11.2699 100 12.9938 100 14.9574C100 16.9211 99.5548 18.6564 98.6643 20.1634C97.7966 21.6475 96.5979 22.7892 95.0681 23.5883C93.5611 24.3875 91.8714 24.7871 89.9991 24.7871ZM89.9991 19.7181C91.118 19.7181 92.0655 19.3071 92.8419 18.4851C93.641 17.6632 94.0406 16.4873 94.0406 14.9574C94.0406 13.4276 93.6524 12.2517 92.8761 11.4297C92.1226 10.6078 91.1865 10.1968 90.0676 10.1968C88.926 10.1968 87.9784 10.6078 87.2249 11.4297C86.4714 12.2289 86.0947 13.4048 86.0947 14.9574C86.0947 16.4873 86.46 17.6632 87.1907 18.4851C87.9442 19.3071 88.8803 19.7181 89.9991 19.7181Z" fill="#C50000"/>
</svg>
